<?xml version="1.0" encoding="UTF-8" standalone="no"?>
<svg width="16" height="16" viewBox="0 0 16 16" fill="none" xmlns="http://www.w3.org/2000/svg">
    <path d="M8 1C4.13401 1 1 4.13401 1 8C1 11.866 4.13401 15 8 15C11.866 15 15 11.866 15 8C15 4.13401 11.866 1 8 1ZM8 2C11.3137 2 14 4.68629 14 8C14 11.3137 11.3137 14 8 14C4.68629 14 2 11.3137 2 8C2 4.68629 4.68629 2 8 2Z" fill="#C5C5C5"/>
    <circle cx="8" cy="5" r="2" fill="#C5C5C5"/>
    <path d="M4 12C4 9.79086 5.79086 8 8 8C10.2091 8 12 9.79086 12 12" stroke="#C5C5C5" stroke-width="1"/>
</svg>
